<svg width="580" height="169" viewBox="0 0 580 169" fill="none" xmlns="http://www.w3.org/2000/svg">
<path fill-rule="evenodd" clip-rule="evenodd" d="M109.476 3.22699C107.501 13.708 104.142 23.7937 101.772 34.0739C101.179 36.2498 100.785 38.4241 99.9945 40.6C99.2039 39.0171 99.0062 37.0404 98.6109 35.2615C95.8468 24.7804 93.4749 14.1017 91.1045 3.42627C91.4998 3.03095 92.2905 3.62394 92.6858 3.22699C93.8702 3.22699 95.6491 3.62394 96.8335 2.83328C101.377 3.03095 105.328 3.22699 109.476 3.22699ZM84.9802 5.0092C84.3872 18.2559 84.9802 30.7136 84.9802 43.7626C83.5965 43.7626 83.7958 41.5899 83.0035 40.7977C77.4722 30.3183 71.5455 20.0349 66.2135 9.3578V9.16014C72.1385 6.78818 78.6582 5.40291 84.7825 4.41459L84.9802 5.0092ZM134.169 8.76481C134.762 9.55547 133.972 10.3461 133.774 10.9407C127.65 21.2209 121.924 31.7003 115.798 41.786H115.205C116.193 29.5276 115.6 16.8706 116.589 4.21693C122.514 5.40291 128.638 6.98584 134.169 8.76481ZM156.489 20.6295L156.097 21.6178C147.009 31.1073 137.726 40.6 128.638 50.0911C128.44 50.0911 128.243 49.8934 128.047 49.6958C131.997 37.0388 136.342 24.5828 140.098 11.9291L140.687 11.5337C146.22 14.1017 151.752 16.6746 156.489 20.6295ZM60.2884 15.6847C63.0541 26.1641 66.2151 36.6451 68.9808 47.1245C68.3862 47.9136 68.1901 46.5315 67.5971 46.5315C59.6954 37.6334 51.7937 29.7253 43.8921 21.2209V20.6295C48.8304 17.6629 53.5711 14.6963 58.7071 12.1251C59.8915 12.7197 59.4978 14.4987 60.2884 15.6847ZM175.455 37.4358V37.8311C163.999 44.5549 152.539 50.8818 141.083 57.4079C140.491 57.0126 141.083 56.2219 141.28 56.0243C148.391 45.5432 155.109 35.0638 162.22 24.9781C166.96 28.5377 171.307 32.6902 175.455 37.4358ZM38.1631 25.5711C42.9037 33.8762 48.4351 41.59 52.9781 49.8934C52.3867 51.4748 50.8054 51.8701 49.8171 53.0577C46.2624 51.2771 42.9037 49.3005 39.5451 47.1245C34.8044 44.1596 29.866 41.3907 25.5191 37.8311C28.8777 33.6785 33.4224 29.1307 37.7677 25.5711H38.1631ZM179.604 42.972C183.357 47.9152 186.121 53.2553 188.689 58.5939V58.9892C179.207 61.5588 169.925 64.7231 160.243 66.703C159.059 65.3193 156.293 65.12 156.688 63.1434C163.999 56.4196 171.9 49.3004 179.604 42.972ZM39.3474 61.3628L39.1498 62.5488C37.3708 63.9324 35.7895 66.899 33.4207 65.9107C26.7034 63.3394 19.5924 61.5572 12.679 59.3862C11.4947 58.9892 12.2837 57.8032 12.679 57.2102C15.2454 52.6624 17.6158 48.1145 20.78 43.7626C27.1004 49.4981 33.2247 55.825 39.3474 61.3628Z" fill="white" stroke="white" stroke-width="3.89093" stroke-miterlimit="2.613"/>
<path fill-rule="evenodd" clip-rule="evenodd" d="M69.3745 52.267C83.9935 63.7348 98.6109 74.4118 113.032 85.8812L112.835 86.8679C107.106 91.4174 102.167 96.5583 96.6358 101.302C96.8335 101.897 96.8335 102.687 97.4265 103.28C102.956 99.5232 108.293 93.5917 113.627 89.4392C124.294 79.9481 135.159 71.2476 145.431 61.5572C146.616 60.7682 148.393 60.3745 149.777 60.9642C165.779 73.2259 181.779 85.0889 197.384 97.5466V127.405C194.421 126.417 191.458 125.229 188.498 124.439C181.383 122.065 173.879 121.671 166.57 120.088C165.384 120.286 163.607 119.693 162.223 119.891L161.828 119.693C154.321 119.495 147.011 119.693 139.506 120.683C137.729 120.879 135.752 120.683 134.173 121.671C132.197 121.867 130.42 122.264 128.443 122.66C125.085 123.449 121.135 124.043 117.776 125.427C115.208 123.648 112.838 121.077 110.27 119.098C105.529 115.936 100.787 113.167 96.0461 110.202C95.85 107.631 95.85 104.863 94.2687 102.885C92.0977 99.1279 87.7491 97.1513 83.603 97.7443C81.628 97.7443 80.2443 98.9302 78.8623 100.116C72.145 96.3606 65.0339 95.7676 57.7252 96.9536C53.5759 97.9419 50.0212 100.116 46.2672 102.094C43.3039 100.314 38.3656 99.9202 35.6015 101.897C32.6382 103.478 31.2561 106.84 30.4655 109.807C30.6632 113.365 31.6482 116.726 35.0085 118.507C35.9968 119.298 37.5765 119.693 38.1695 120.879C36.7859 129.184 36.3922 139.071 37.9718 147.377C38.1695 153.704 39.7492 159.634 41.7242 165.569C41.5282 165.964 41.3305 166.163 41.1328 166.163C34.0202 165.964 26.7115 166.163 19.7997 165.964V165.37C22.7631 160.23 26.1185 155.483 28.4905 150.344C21.3778 150.146 13.8731 149.949 6.76043 150.344C8.93311 155.684 12.4878 160.627 15.0558 165.766L14.6621 166.165L3.59943 165.966L3.2041 165.766C3.40177 142.829 3.59943 119.499 3.59943 95.9653C21.7731 79.9497 40.3422 63.5371 58.7136 47.3238C63.0541 46.1362 66.0174 50.0911 69.3745 52.267Z" fill="white"/>
<path fill-rule="evenodd" clip-rule="evenodd" d="M125.08 58.9892C128.241 61.1651 131.6 64.1301 134.762 66.703C135.158 67.492 134.367 68.2859 133.576 68.6796C127.454 73.6228 121.527 79.556 115.007 84.4992C114.217 83.5092 112.637 83.1155 113.032 81.7303C115.6 78.566 118.761 75.2057 119.946 71.6462C116.785 74.4135 114.81 78.1707 111.059 80.9396C109.675 80.5443 109.081 79.3583 108.096 78.566L108.293 77.7754C111.453 74.4135 115.404 71.2509 117.18 67.296C115.403 68.6796 113.23 71.4485 110.86 72.8322C109.675 74.4151 107.7 75.6011 106.117 76.7871C105.132 76.1941 103.551 75.4034 103.154 74.0198C106.315 71.2508 110.664 68.0866 112.242 64.9224C108.883 67.8889 105.526 70.2625 101.772 72.8322C100.39 72.6345 98.4133 71.4485 98.0179 69.8672C105.131 65.713 111.65 59.9792 118.168 54.8383C121.132 54.4413 122.909 57.6056 125.08 58.9892Z" fill="white"/>
<path fill-rule="evenodd" clip-rule="evenodd" d="M192.444 67.8873C194.026 72.8305 195.803 77.7738 196.197 82.9162C191.654 83.7069 186.516 83.31 181.973 83.31C178.616 80.345 174.864 78.3667 171.703 75.2041L171.9 74.6095C178.219 71.2492 184.74 68.2843 190.863 64.7215C192.047 65.3177 191.85 66.899 192.444 67.8873ZM20.9761 70.6562C22.755 71.8422 24.73 72.2375 26.3097 73.4235C23.5457 77.1808 19.3964 79.3567 16.433 82.7186C15.644 82.9162 14.2587 83.1139 13.6674 82.5193C10.704 82.5193 7.74069 82.9162 4.77897 82.3216C4.57969 80.1473 5.37034 77.7738 5.96333 75.5995C6.75399 71.8422 8.13601 68.2843 9.51966 64.9207C13.6674 66.306 17.2221 68.678 20.9761 70.6562ZM7.74069 89.8361C6.95165 91.419 4.97664 92.605 3.59299 93.987C3.39533 93.987 3.19766 93.7894 3 93.394C3.59299 92.0104 3 90.0321 3.98832 88.8462C5.37034 89.0454 6.55632 89.2431 7.74069 89.8361ZM196.986 94.7793C196.396 94.5816 195.803 93.5933 195.011 93.1964C194.024 92.8027 193.233 92.2081 192.837 91.2197C193.629 90.4291 195.208 90.2314 196.394 89.8361C197.976 90.8244 197.183 93.3957 196.986 94.7793ZM161.628 123.057C160.245 122.663 158.467 123.256 157.084 122.464C143.059 122.464 129.429 124.442 116.587 128.594C111.451 124.047 105.526 119.301 99.5992 115.544C97.6242 112.972 90.7092 113.567 93.4749 108.425C93.0796 105.26 91.3022 101.9 88.1412 100.714C84.7842 99.5265 82.0185 101.702 79.4489 103.481C76.4855 101.702 73.3261 100.317 69.7698 100.119C68.9808 99.7241 67.9925 99.5265 67.2018 99.9234C60.4845 99.3288 53.1758 99.9234 48.2374 105.46C44.8788 103.878 40.9287 102.098 37.3724 104.272C35.3974 105.855 34.0138 108.029 34.0138 110.601C33.4224 115.148 37.5701 117.52 40.9304 119.499C40.7311 122.068 39.7444 124.244 39.7444 126.814C39.7444 140.459 40.535 154.299 45.8687 166.167C62.2651 165.967 77.8708 165.967 93.8718 165.967H141.48C159.457 166.167 178.618 165.967 196.791 165.967L197.384 165.572V130.965C186.318 125.824 174.271 124.045 161.628 123.057Z" fill="white" stroke="white" stroke-width="3.89093" stroke-miterlimit="2.613"/>
<path fill-rule="evenodd" clip-rule="evenodd" d="M70.5604 141.841C67.5971 143.818 63.8431 142.236 60.6821 142.236C58.5094 138.875 56.9297 134.129 58.7071 130.174C59.4978 126.812 60.6821 123.65 61.6704 120.286C63.2501 118.507 66.8064 118.902 68.7815 120.286C70.7581 126.812 74.9058 134.92 70.5604 141.841Z" fill="black"/>
<path fill-rule="evenodd" clip-rule="evenodd" d="M70.3628 136.107C70.1651 137.689 70.7581 139.469 69.3745 140.457C67.0041 139.665 64.8315 141.643 62.4611 140.06C61.6705 140.26 61.2768 140.26 60.6821 139.665C59.8915 138.677 59.8915 136.898 60.2884 135.514C61.2767 133.536 64.0408 133.931 66.0174 133.931C67.5971 134.129 70.1651 134.129 70.3628 136.107Z" fill="white" stroke="white" stroke-width="3.89093" stroke-miterlimit="2.613"/>
<path d="M232.522 66.977L231.855 67.731V49.2H234.697V67.731L233.972 66.977H243.861L243.136 67.731V49.2H245.978V69.5H220.545V49.2H223.416V67.731L222.691 66.977H232.522ZM262.964 69.5L257.019 62.018L259.31 60.626L266.241 69.5H262.964ZM251.828 69.5V54.13H254.612V69.5H251.828ZM253.771 63.004V60.626H258.846V63.004H253.771ZM259.542 62.134L256.961 61.786L262.848 54.13H265.835L259.542 62.134ZM275.234 69.674C273.687 69.674 272.314 69.3357 271.116 68.659C269.917 67.9823 268.97 67.0543 268.274 65.875C267.578 64.6763 267.23 63.323 267.23 61.815C267.23 60.2877 267.578 58.9343 268.274 57.755C268.97 56.5757 269.917 55.6573 271.116 55C272.314 54.3233 273.687 53.985 275.234 53.985C276.761 53.985 278.124 54.3233 279.323 55C280.541 55.6573 281.488 56.5757 282.165 57.755C282.861 58.915 283.209 60.2683 283.209 61.815C283.209 63.3423 282.861 64.6957 282.165 65.875C281.488 67.0543 280.541 67.9823 279.323 68.659C278.124 69.3357 276.761 69.674 275.234 69.674ZM275.234 67.238C276.22 67.238 277.099 67.0157 277.873 66.571C278.665 66.1263 279.284 65.498 279.729 64.686C280.173 63.8547 280.396 62.8977 280.396 61.815C280.396 60.713 280.173 59.7657 279.729 58.973C279.284 58.161 278.665 57.5327 277.873 57.088C277.099 56.6433 276.22 56.421 275.234 56.421C274.248 56.421 273.368 56.6433 272.595 57.088C271.821 57.5327 271.203 58.161 270.739 58.973C270.275 59.7657 270.043 60.713 270.043 61.815C270.043 62.8977 270.275 63.8547 270.739 64.686C271.203 65.498 271.821 66.1263 272.595 66.571C273.368 67.0157 274.248 67.238 275.234 67.238ZM284.564 69.471L284.738 67.122C284.873 67.1413 284.999 67.1607 285.115 67.18C285.231 67.1993 285.337 67.209 285.434 67.209C286.052 67.209 286.536 66.9963 286.884 66.571C287.251 66.1457 287.522 65.585 287.696 64.889C287.87 64.1737 287.995 63.3713 288.073 62.482C288.15 61.5927 288.208 60.7033 288.247 59.814L288.508 54.13H300.311V69.5H297.527V55.754L298.194 56.566H290.306L290.944 55.725L290.741 59.988C290.683 61.3413 290.576 62.6077 290.422 63.787C290.267 64.9663 290.025 66.0007 289.697 66.89C289.387 67.7793 288.952 68.4753 288.392 68.978C287.85 69.4807 287.145 69.732 286.275 69.732C286.023 69.732 285.753 69.703 285.463 69.645C285.192 69.6063 284.892 69.5483 284.564 69.471ZM315.119 69.5V66.252L314.974 65.643V60.104C314.974 58.9247 314.626 58.016 313.93 57.378C313.253 56.7207 312.228 56.392 310.856 56.392C309.947 56.392 309.058 56.5467 308.188 56.856C307.318 57.146 306.583 57.5423 305.984 58.045L304.824 55.957C305.616 55.319 306.564 54.8357 307.666 54.507C308.787 54.159 309.957 53.985 311.175 53.985C313.282 53.985 314.906 54.4973 316.047 55.522C317.187 56.5467 317.758 58.1127 317.758 60.22V69.5H315.119ZM310.073 69.674C308.932 69.674 307.927 69.4807 307.057 69.094C306.206 68.7073 305.549 68.1757 305.085 67.499C304.621 66.803 304.389 66.02 304.389 65.15C304.389 64.3187 304.582 63.5647 304.969 62.888C305.375 62.2113 306.022 61.67 306.912 61.264C307.82 60.858 309.038 60.655 310.566 60.655H315.438V62.656H310.682C309.29 62.656 308.352 62.888 307.869 63.352C307.385 63.816 307.144 64.3767 307.144 65.034C307.144 65.788 307.443 66.397 308.043 66.861C308.642 67.3057 309.473 67.528 310.537 67.528C311.581 67.528 312.489 67.296 313.263 66.832C314.055 66.368 314.626 65.6913 314.974 64.802L315.525 66.716C315.157 67.6247 314.51 68.3497 313.582 68.891C312.654 69.413 311.484 69.674 310.073 69.674ZM331.023 69.5V49.2H339.752C341.956 49.2 343.686 49.6447 344.943 50.534C346.2 51.4233 346.828 52.7187 346.828 54.42C346.828 56.0827 346.229 57.3587 345.03 58.248C343.831 59.118 342.256 59.553 340.303 59.553L340.825 58.683C343.087 58.683 344.817 59.1373 346.016 60.046C347.234 60.9353 347.843 62.2403 347.843 63.961C347.843 65.701 347.205 67.064 345.929 68.05C344.672 69.0167 342.797 69.5 340.303 69.5H331.023ZM333.894 67.209H340.245C341.792 67.209 342.952 66.9287 343.725 66.368C344.518 65.788 344.914 64.9083 344.914 63.729C344.914 62.5497 344.518 61.6893 343.725 61.148C342.952 60.6067 341.792 60.336 340.245 60.336H333.894V67.209ZM333.894 58.132H339.549C340.96 58.132 342.033 57.8517 342.768 57.291C343.522 56.7303 343.899 55.9087 343.899 54.826C343.899 53.724 343.522 52.8927 342.768 52.332C342.033 51.7713 340.96 51.491 339.549 51.491H333.894V58.132ZM359.068 69.674C357.425 69.674 355.975 69.3357 354.718 68.659C353.481 67.9823 352.514 67.0543 351.818 65.875C351.141 64.6957 350.803 63.3423 350.803 61.815C350.803 60.2877 351.132 58.9343 351.789 57.755C352.466 56.5757 353.384 55.6573 354.544 55C355.723 54.3233 357.048 53.985 358.517 53.985C360.006 53.985 361.32 54.3137 362.461 54.971C363.602 55.6283 364.491 56.5563 365.129 57.755C365.786 58.9343 366.115 60.3167 366.115 61.902C366.115 62.018 366.105 62.1533 366.086 62.308C366.086 62.4627 366.076 62.6077 366.057 62.743H352.978V60.742H364.607L363.476 61.438C363.495 60.452 363.292 59.5723 362.867 58.799C362.442 58.0257 361.852 57.4263 361.098 57.001C360.363 56.5563 359.503 56.334 358.517 56.334C357.55 56.334 356.69 56.5563 355.936 57.001C355.182 57.4263 354.592 58.0353 354.167 58.828C353.742 59.6013 353.529 60.4907 353.529 61.496V61.96C353.529 62.9847 353.761 63.903 354.225 64.715C354.708 65.5077 355.375 66.1263 356.226 66.571C357.077 67.0157 358.053 67.238 359.155 67.238C360.064 67.238 360.885 67.0833 361.62 66.774C362.374 66.4647 363.031 66.0007 363.592 65.382L365.129 67.18C364.433 67.992 363.563 68.6107 362.519 69.036C361.494 69.4613 360.344 69.674 359.068 69.674ZM377.539 69.732C376.263 69.732 375.132 69.529 374.146 69.123C373.179 68.717 372.348 68.1177 371.652 67.325C370.956 66.513 370.424 65.498 370.057 64.28C369.709 63.0427 369.535 61.5927 369.535 59.93C369.535 58.6153 369.651 57.436 369.883 56.392C370.115 55.348 370.444 54.42 370.869 53.608C371.314 52.796 371.855 52.0903 372.493 51.491C373.15 50.8917 373.885 50.3987 374.697 50.012C375.528 49.606 376.437 49.2967 377.423 49.084L384.441 47.518L384.847 50.099L378.38 51.491C377.993 51.5683 377.529 51.6843 376.988 51.839C376.447 51.9937 375.896 52.2353 375.335 52.564C374.774 52.8733 374.252 53.3083 373.769 53.869C373.286 54.4297 372.899 55.1643 372.609 56.073C372.319 56.9623 372.174 58.0643 372.174 59.379C372.174 59.7463 372.184 60.0267 372.203 60.22C372.222 60.4133 372.242 60.6067 372.261 60.8C372.3 60.9933 372.329 61.2833 372.348 61.67L371.188 60.481C371.497 59.4177 371.99 58.4897 372.667 57.697C373.344 56.9043 374.156 56.2953 375.103 55.87C376.07 55.4253 377.123 55.203 378.264 55.203C379.695 55.203 380.961 55.5123 382.063 56.131C383.184 56.7497 384.064 57.6003 384.702 58.683C385.34 59.7657 385.659 61.003 385.659 62.395C385.659 63.8063 385.321 65.0727 384.644 66.194C383.987 67.296 383.049 68.166 381.831 68.804C380.613 69.4227 379.182 69.732 377.539 69.732ZM377.8 67.412C378.786 67.412 379.656 67.1993 380.41 66.774C381.164 66.3293 381.754 65.7397 382.179 65.005C382.604 64.251 382.817 63.41 382.817 62.482C382.817 61.554 382.604 60.7323 382.179 60.017C381.754 59.3017 381.164 58.741 380.41 58.335C379.656 57.9097 378.767 57.697 377.742 57.697C376.775 57.697 375.905 57.9 375.132 58.306C374.359 58.6927 373.759 59.2437 373.334 59.959C372.909 60.655 372.696 61.467 372.696 62.395C372.696 63.323 372.909 64.1737 373.334 64.947C373.779 65.701 374.378 66.3003 375.132 66.745C375.905 67.1897 376.795 67.412 377.8 67.412ZM388.874 62.743V60.336H396.675V62.743H388.874ZM401.484 69.5V49.2H404.355V64.86L416.361 49.2H419.029V69.5H416.187V53.869L404.152 69.5H401.484ZM424.894 69.5V54.13H427.678V60.655H436.436V54.13H439.22V69.5H436.436V63.062H427.678V69.5H424.894ZM444.633 69.5V54.13H447.417V60.655H456.175V54.13H458.959V69.5H456.175V63.062H447.417V69.5H444.633ZM470.955 69.674C469.409 69.674 468.036 69.3357 466.837 68.659C465.639 67.9823 464.691 67.0543 463.995 65.875C463.299 64.6763 462.951 63.323 462.951 61.815C462.951 60.2877 463.299 58.9343 463.995 57.755C464.691 56.5757 465.639 55.6573 466.837 55C468.036 54.3233 469.409 53.985 470.955 53.985C472.483 53.985 473.846 54.3233 475.044 55C476.262 55.6573 477.21 56.5757 477.886 57.755C478.582 58.915 478.93 60.2683 478.93 61.815C478.93 63.3423 478.582 64.6957 477.886 65.875C477.21 67.0543 476.262 67.9823 475.044 68.659C473.846 69.3357 472.483 69.674 470.955 69.674ZM470.955 67.238C471.941 67.238 472.821 67.0157 473.594 66.571C474.387 66.1263 475.006 65.498 475.45 64.686C475.895 63.8547 476.117 62.8977 476.117 61.815C476.117 60.713 475.895 59.7657 475.45 58.973C475.006 58.161 474.387 57.5327 473.594 57.088C472.821 56.6433 471.941 56.421 470.955 56.421C469.969 56.421 469.09 56.6433 468.316 57.088C467.543 57.5327 466.924 58.161 466.46 58.973C465.996 59.7657 465.764 60.713 465.764 61.815C465.764 62.8977 465.996 63.8547 466.46 64.686C466.924 65.498 467.543 66.1263 468.316 66.571C469.09 67.0157 469.969 67.238 470.955 67.238ZM482.951 69.5V54.13H490.085C491.883 54.13 493.294 54.478 494.319 55.174C495.363 55.8507 495.885 56.8173 495.885 58.074C495.885 59.3307 495.392 60.307 494.406 61.003C493.439 61.6797 492.153 62.018 490.549 62.018L490.984 61.264C492.82 61.264 494.183 61.6023 495.073 62.279C495.962 62.9557 496.407 63.9513 496.407 65.266C496.407 66.6 495.904 67.644 494.899 68.398C493.913 69.1327 492.395 69.5 490.346 69.5H482.951ZM485.677 67.354H490.143C491.303 67.354 492.173 67.18 492.753 66.832C493.333 66.4647 493.623 65.8847 493.623 65.092C493.623 64.28 493.352 63.6903 492.811 63.323C492.289 62.9363 491.457 62.743 490.317 62.743H485.677V67.354ZM485.677 60.742H489.853C490.916 60.742 491.718 60.5487 492.26 60.162C492.82 59.756 493.101 59.1953 493.101 58.48C493.101 57.7453 492.82 57.1943 492.26 56.827C491.718 56.4597 490.916 56.276 489.853 56.276H485.677V60.742ZM510.189 69.5V66.252L510.044 65.643V60.104C510.044 58.9247 509.696 58.016 509 57.378C508.323 56.7207 507.299 56.392 505.926 56.392C505.017 56.392 504.128 56.5467 503.258 56.856C502.388 57.146 501.653 57.5423 501.054 58.045L499.894 55.957C500.687 55.319 501.634 54.8357 502.736 54.507C503.857 54.159 505.027 53.985 506.245 53.985C508.352 53.985 509.976 54.4973 511.117 55.522C512.258 56.5467 512.828 58.1127 512.828 60.22V69.5H510.189ZM505.143 69.674C504.002 69.674 502.997 69.4807 502.127 69.094C501.276 68.7073 500.619 68.1757 500.155 67.499C499.691 66.803 499.459 66.02 499.459 65.15C499.459 64.3187 499.652 63.5647 500.039 62.888C500.445 62.2113 501.093 61.67 501.982 61.264C502.891 60.858 504.109 60.655 505.636 60.655H510.508V62.656H505.752C504.36 62.656 503.422 62.888 502.939 63.352C502.456 63.816 502.214 64.3767 502.214 65.034C502.214 65.788 502.514 66.397 503.113 66.861C503.712 67.3057 504.544 67.528 505.607 67.528C506.651 67.528 507.56 67.296 508.333 66.832C509.126 66.368 509.696 65.6913 510.044 64.802L510.595 66.716C510.228 67.6247 509.58 68.3497 508.652 68.891C507.724 69.413 506.554 69.674 505.143 69.674ZM517.841 69.5V54.13H520.625V67.064H529.035V54.13H531.819V69.5H517.841ZM531.616 73.067V69.355L532.312 69.5H529.035V67.064H534.255V73.067H531.616ZM537.864 69.5V54.13H540.648V65.324L550.073 54.13H552.596V69.5H549.812V58.306L540.416 69.5H537.864ZM557.999 69.5V54.13H560.783V65.324L570.208 54.13H572.731V69.5H569.947V58.306L560.551 69.5H557.999ZM565.191 52.129C563.78 52.129 562.668 51.7907 561.856 51.114C561.064 50.418 560.658 49.4223 560.638 48.127H562.523C562.543 48.8617 562.784 49.4417 563.248 49.867C563.732 50.2923 564.37 50.505 565.162 50.505C565.955 50.505 566.593 50.2923 567.076 49.867C567.56 49.4417 567.811 48.8617 567.83 48.127H569.773C569.754 49.4223 569.338 50.418 568.526 51.114C567.714 51.7907 566.603 52.129 565.191 52.129ZM220.081 119.5V104.13H222.865V115.324L232.29 104.13H234.813V119.5H232.029V108.306L222.633 119.5H220.081ZM240.217 119.5V104.13H243.088L249.7 115.498H248.54L255.326 104.13H257.936V119.5H255.413V107.262L255.877 107.523L249.671 117.76H248.453L242.218 107.32L242.769 107.204V119.5H240.217ZM263.964 119.674C263.423 119.674 262.959 119.49 262.572 119.123C262.185 118.736 261.992 118.253 261.992 117.673C261.992 117.093 262.185 116.619 262.572 116.252C262.959 115.885 263.423 115.701 263.964 115.701C264.486 115.701 264.931 115.885 265.298 116.252C265.685 116.619 265.878 117.093 265.878 117.673C265.878 118.253 265.685 118.736 265.298 119.123C264.931 119.49 264.486 119.674 263.964 119.674ZM282.324 119.5V100.969L283.049 101.723H275.393V99.2H292.126V101.723H284.47L285.166 100.969V119.5H282.324ZM294.861 119.674C294.32 119.674 293.856 119.49 293.469 119.123C293.083 118.736 292.889 118.253 292.889 117.673C292.889 117.093 293.083 116.619 293.469 116.252C293.856 115.885 294.32 115.701 294.861 115.701C295.383 115.701 295.828 115.885 296.195 116.252C296.582 116.619 296.775 117.093 296.775 117.673C296.775 118.253 296.582 118.736 296.195 119.123C295.828 119.49 295.383 119.674 294.861 119.674ZM309.075 119.5V99.2H324.387V101.665H311.946V107.465H318.268C320.684 107.465 322.521 107.968 323.778 108.973C325.034 109.978 325.663 111.438 325.663 113.352C325.663 115.324 324.976 116.842 323.604 117.905C322.25 118.968 320.307 119.5 317.775 119.5H309.075ZM311.946 117.209H317.659C319.341 117.209 320.607 116.89 321.458 116.252C322.328 115.614 322.763 114.667 322.763 113.41C322.763 110.974 321.061 109.756 317.659 109.756H311.946V117.209ZM336.667 119.674C335.023 119.674 333.573 119.336 332.317 118.659C331.079 117.982 330.113 117.054 329.417 115.875C328.74 114.696 328.402 113.342 328.402 111.815C328.402 110.288 328.73 108.934 329.388 107.755C330.064 106.576 330.983 105.657 332.143 105C333.322 104.323 334.646 103.985 336.116 103.985C337.604 103.985 338.919 104.314 340.06 104.971C341.2 105.628 342.09 106.556 342.728 107.755C343.385 108.934 343.714 110.317 343.714 111.902C343.714 112.018 343.704 112.153 343.685 112.308C343.685 112.463 343.675 112.608 343.656 112.743H330.577V110.742H342.206L341.075 111.438C341.094 110.452 340.891 109.572 340.466 108.799C340.04 108.026 339.451 107.426 338.697 107.001C337.962 106.556 337.102 106.334 336.116 106.334C335.149 106.334 334.289 106.556 333.535 107.001C332.781 107.426 332.191 108.035 331.766 108.828C331.34 109.601 331.128 110.491 331.128 111.496V111.96C331.128 112.985 331.36 113.903 331.824 114.715C332.307 115.508 332.974 116.126 333.825 116.571C334.675 117.016 335.652 117.238 336.754 117.238C337.662 117.238 338.484 117.083 339.219 116.774C339.973 116.465 340.63 116.001 341.191 115.382L342.728 117.18C342.032 117.992 341.162 118.611 340.118 119.036C339.093 119.461 337.943 119.674 336.667 119.674ZM356.182 119.674C354.906 119.674 353.736 119.384 352.673 118.804C351.629 118.205 350.788 117.325 350.15 116.165C349.531 115.005 349.222 113.555 349.222 111.815C349.222 110.075 349.521 108.625 350.121 107.465C350.739 106.305 351.571 105.435 352.615 104.855C353.678 104.275 354.867 103.985 356.182 103.985C357.69 103.985 359.024 104.314 360.184 104.971C361.344 105.628 362.262 106.547 362.939 107.726C363.615 108.886 363.954 110.249 363.954 111.815C363.954 113.381 363.615 114.754 362.939 115.933C362.262 117.112 361.344 118.031 360.184 118.688C359.024 119.345 357.69 119.674 356.182 119.674ZM348.033 125.126V104.13H350.701V108.277L350.527 111.844L350.817 115.411V125.126H348.033ZM355.95 117.238C356.936 117.238 357.815 117.016 358.589 116.571C359.381 116.126 360 115.498 360.445 114.686C360.909 113.855 361.141 112.898 361.141 111.815C361.141 110.713 360.909 109.766 360.445 108.973C360 108.161 359.381 107.533 358.589 107.088C357.815 106.643 356.936 106.421 355.95 106.421C354.983 106.421 354.103 106.643 353.311 107.088C352.537 107.533 351.919 108.161 351.455 108.973C351.01 109.766 350.788 110.713 350.788 111.815C350.788 112.898 351.01 113.855 351.455 114.686C351.919 115.498 352.537 116.126 353.311 116.571C354.103 117.016 354.983 117.238 355.95 117.238ZM367.998 119.5V104.13H370.782V110.655H379.54V104.13H382.324V119.5H379.54V113.062H370.782V119.5H367.998ZM394.582 119.674C392.938 119.674 391.488 119.336 390.232 118.659C388.994 117.982 388.028 117.054 387.332 115.875C386.655 114.696 386.317 113.342 386.317 111.815C386.317 110.288 386.645 108.934 387.303 107.755C387.979 106.576 388.898 105.657 390.058 105C391.237 104.323 392.561 103.985 394.031 103.985C395.519 103.985 396.834 104.314 397.975 104.971C399.115 105.628 400.005 106.556 400.643 107.755C401.3 108.934 401.629 110.317 401.629 111.902C401.629 112.018 401.619 112.153 401.6 112.308C401.6 112.463 401.59 112.608 401.571 112.743H388.492V110.742H400.121L398.99 111.438C399.009 110.452 398.806 109.572 398.381 108.799C397.955 108.026 397.366 107.426 396.612 107.001C395.877 106.556 395.017 106.334 394.031 106.334C393.064 106.334 392.204 106.556 391.45 107.001C390.696 107.426 390.106 108.035 389.681 108.828C389.255 109.601 389.043 110.491 389.043 111.496V111.96C389.043 112.985 389.275 113.903 389.739 114.715C390.222 115.508 390.889 116.126 391.74 116.571C392.59 117.016 393.567 117.238 394.669 117.238C395.577 117.238 396.399 117.083 397.134 116.774C397.888 116.465 398.545 116.001 399.106 115.382L400.643 117.18C399.947 117.992 399.077 118.611 398.033 119.036C397.008 119.461 395.858 119.674 394.582 119.674ZM414.097 119.674C412.821 119.674 411.651 119.384 410.588 118.804C409.544 118.205 408.703 117.325 408.065 116.165C407.446 115.005 407.137 113.555 407.137 111.815C407.137 110.075 407.436 108.625 408.036 107.465C408.654 106.305 409.486 105.435 410.53 104.855C411.593 104.275 412.782 103.985 414.097 103.985C415.605 103.985 416.939 104.314 418.099 104.971C419.259 105.628 420.177 106.547 420.854 107.726C421.53 108.886 421.869 110.249 421.869 111.815C421.869 113.381 421.53 114.754 420.854 115.933C420.177 117.112 419.259 118.031 418.099 118.688C416.939 119.345 415.605 119.674 414.097 119.674ZM405.948 125.126V104.13H408.616V108.277L408.442 111.844L408.732 115.411V125.126H405.948ZM413.865 117.238C414.851 117.238 415.73 117.016 416.504 116.571C417.296 116.126 417.915 115.498 418.36 114.686C418.824 113.855 419.056 112.898 419.056 111.815C419.056 110.713 418.824 109.766 418.36 108.973C417.915 108.161 417.296 107.533 416.504 107.088C415.73 106.643 414.851 106.421 413.865 106.421C412.898 106.421 412.018 106.643 411.226 107.088C410.452 107.533 409.834 108.161 409.37 108.973C408.925 109.766 408.703 110.713 408.703 111.815C408.703 112.898 408.925 113.855 409.37 114.686C409.834 115.498 410.452 116.126 411.226 116.571C412.018 117.016 412.898 117.238 413.865 117.238ZM432.612 119.674C431.046 119.674 429.645 119.336 428.407 118.659C427.189 117.982 426.232 117.054 425.536 115.875C424.84 114.696 424.492 113.342 424.492 111.815C424.492 110.288 424.84 108.934 425.536 107.755C426.232 106.576 427.189 105.657 428.407 105C429.645 104.323 431.046 103.985 432.612 103.985C434.004 103.985 435.242 104.265 436.324 104.826C437.426 105.367 438.277 106.179 438.876 107.262L436.759 108.625C436.257 107.871 435.638 107.32 434.903 106.972C434.188 106.605 433.415 106.421 432.583 106.421C431.578 106.421 430.679 106.643 429.886 107.088C429.094 107.533 428.465 108.161 428.001 108.973C427.537 109.766 427.305 110.713 427.305 111.815C427.305 112.917 427.537 113.874 428.001 114.686C428.465 115.498 429.094 116.126 429.886 116.571C430.679 117.016 431.578 117.238 432.583 117.238C433.415 117.238 434.188 117.064 434.903 116.716C435.638 116.349 436.257 115.788 436.759 115.034L438.876 116.368C438.277 117.431 437.426 118.253 436.324 118.833C435.242 119.394 434.004 119.674 432.612 119.674ZM451.906 119.5V116.252L451.761 115.643V110.104C451.761 108.925 451.413 108.016 450.717 107.378C450.04 106.721 449.015 106.392 447.643 106.392C446.734 106.392 445.845 106.547 444.975 106.856C444.105 107.146 443.37 107.542 442.771 108.045L441.611 105.957C442.403 105.319 443.351 104.836 444.453 104.507C445.574 104.159 446.744 103.985 447.962 103.985C450.069 103.985 451.693 104.497 452.834 105.522C453.974 106.547 454.545 108.113 454.545 110.22V119.5H451.906ZM446.86 119.674C445.719 119.674 444.714 119.481 443.844 119.094C442.993 118.707 442.336 118.176 441.872 117.499C441.408 116.803 441.176 116.02 441.176 115.15C441.176 114.319 441.369 113.565 441.756 112.888C442.162 112.211 442.809 111.67 443.699 111.264C444.607 110.858 445.825 110.655 447.353 110.655H452.225V112.656H447.469C446.077 112.656 445.139 112.888 444.656 113.352C444.172 113.816 443.931 114.377 443.931 115.034C443.931 115.788 444.23 116.397 444.83 116.861C445.429 117.306 446.26 117.528 447.324 117.528C448.368 117.528 449.276 117.296 450.05 116.832C450.842 116.368 451.413 115.691 451.761 114.802L452.312 116.716C451.944 117.625 451.297 118.35 450.369 118.891C449.441 119.413 448.271 119.674 446.86 119.674ZM458.514 112.743V110.336H466.315V112.743H458.514ZM469.6 119.732C469.31 119.732 469.02 119.713 468.73 119.674C468.44 119.635 468.121 119.577 467.773 119.5L467.976 116.919C468.285 116.996 468.595 117.035 468.904 117.035C469.755 117.035 470.431 116.697 470.934 116.02C471.437 115.343 471.804 114.319 472.036 112.946C472.287 111.573 472.452 109.843 472.529 107.755L472.848 99.2H487.145V119.5H484.303V100.969L484.999 101.723H474.704L475.342 100.94L475.11 107.668C475.052 109.679 474.917 111.438 474.704 112.946C474.491 114.454 474.172 115.711 473.747 116.716C473.322 117.721 472.771 118.475 472.094 118.978C471.437 119.481 470.605 119.732 469.6 119.732ZM493.004 119.5V104.13H495.788V115.324L505.213 104.13H507.736V119.5H504.952V108.306L495.556 119.5H493.004Z" fill="white"/>
</svg>
